<svg xmlns="http://www.w3.org/2000/svg" xmlns:xlink="http://www.w3.org/1999/xlink" width="500" zoomAndPan="magnify" viewBox="0 0 375 374.999991" height="500" preserveAspectRatio="xMidYMid meet" version="1.0"><defs><clipPath id="bbb18cbfcc"><path d="M 126.925781 108.746094 L 248.027344 108.746094 L 248.027344 229.84375 L 126.925781 229.84375 Z M 126.925781 108.746094 " clip-rule="nonzero"/></clipPath><clipPath id="d67b666704"><path d="M 187.167969 108.746094 L 247.945312 108.746094 L 247.945312 229.84375 L 187.167969 229.84375 Z M 187.167969 108.746094 " clip-rule="nonzero"/></clipPath><clipPath id="04317417d7"><path d="M 163 113 L 240.085938 113 L 240.085938 189.847656 L 163 189.847656 Z M 163 113 " clip-rule="nonzero"/></clipPath><clipPath id="a9f82871b1"><path d="M 133.757812 147.117188 L 210.664062 147.117188 L 210.664062 224.222656 L 133.757812 224.222656 Z M 133.757812 147.117188 " clip-rule="nonzero"/></clipPath></defs><g clip-path="url(#bbb18cbfcc)"><path fill="#ed21df" d="M 187.476562 229.84375 C 154.027344 229.84375 126.925781 202.558594 126.925781 169.292969 C 126.925781 136.027344 154.027344 108.746094 187.476562 108.746094 C 220.929688 108.746094 248.027344 135.84375 248.027344 169.292969 C 248.027344 202.746094 220.742188 229.84375 187.476562 229.84375 Z M 187.476562 112.480469 C 156.082031 112.480469 130.664062 137.898438 130.664062 169.292969 C 130.664062 200.691406 156.082031 226.105469 187.476562 226.105469 C 218.875 226.105469 244.289062 200.691406 244.289062 169.292969 C 244.289062 137.898438 218.6875 112.480469 187.476562 112.480469 Z M 187.476562 112.480469 " fill-opacity="1" fill-rule="nonzero"/></g><g clip-path="url(#d67b666704)"><path fill="#0cccdf" d="M 187.476562 229.84375 C 154.027344 229.84375 126.925781 202.558594 126.925781 169.292969 C 126.925781 136.027344 154.027344 108.746094 187.476562 108.746094 C 220.929688 108.746094 248.027344 135.84375 248.027344 169.292969 C 248.027344 202.746094 220.742188 229.84375 187.476562 229.84375 Z M 187.476562 112.480469 C 156.082031 112.480469 130.664062 137.898438 130.664062 169.292969 C 130.664062 200.691406 156.082031 226.105469 187.476562 226.105469 C 218.875 226.105469 244.289062 200.691406 244.289062 169.292969 C 244.289062 137.898438 218.6875 112.480469 187.476562 112.480469 Z M 187.476562 112.480469 " fill-opacity="1" fill-rule="nonzero"/></g><g clip-path="url(#04317417d7)"><path fill="#ed21df" d="M 165.9375 189.847656 C 164.984375 189.847656 164.070312 189.332031 163.621094 188.414062 C 162.980469 187.136719 163.5 185.582031 164.777344 184.941406 L 231.703125 151.476562 L 164.777344 118.015625 C 163.5 117.375 162.980469 115.820312 163.621094 114.542969 C 164.257812 113.261719 165.816406 112.746094 167.09375 113.382812 L 238.652344 149.164062 C 239.53125 149.59375 240.085938 150.492188 240.085938 151.476562 C 240.085938 152.464844 239.53125 153.363281 238.652344 153.792969 L 167.09375 189.574219 C 166.730469 189.761719 166.332031 189.847656 165.9375 189.847656 Z M 165.9375 189.847656 " fill-opacity="1" fill-rule="nonzero"/></g><g clip-path="url(#a9f82871b1)"><path fill="#0cccdf" d="M 207.710938 224.222656 C 208.660156 224.222656 209.578125 223.703125 210.027344 222.789062 C 210.664062 221.507812 210.148438 219.953125 208.867188 219.3125 L 141.941406 185.851562 L 208.867188 152.390625 C 210.148438 151.75 210.664062 150.195312 210.027344 148.914062 C 209.386719 147.636719 207.832031 147.117188 206.550781 147.757812 L 134.996094 183.535156 C 134.113281 183.96875 133.558594 184.867188 133.558594 185.851562 C 133.558594 186.835938 134.113281 187.734375 134.996094 188.167969 L 206.550781 223.945312 C 206.914062 224.136719 207.3125 224.222656 207.710938 224.222656 Z M 207.710938 224.222656 " fill-opacity="1" fill-rule="nonzero"/></g></svg>